# xmcd
#
# Track frame offsets: 
#        150
#        13173
#        25722
#        36259
#        44780
#        60307
#        73099
#        84635
#        103305
#        131545
#        141155
#        151702
#        161947
#
# Disc length: 2413 seconds
#
# Revision: 2
# Processed by: cddbd v1.5.2PL0 Copyright (c) Steve Scherf et al.
# Submitted via: ExactAudioCopy v0.95a5
#
DISCID=b4096b0d
DTITLE=Johny Cash - Vintage Gold Masters
DYEAR=1900
DGENRE=
TTITLE0=wanted man
TTITLE1=i walk the line
TTITLE2=you win again
TTITLE3=a boy named sue
TTITLE4=darlin companion
TTITLE5=folsom prison blues
TTITLE6=peace in the valley
TTITLE7=san quentin
TTITLE8=starkville city jail
TTITLE9=wreck of the old 97
TTITLE10=daddy sang bass
TTITLE11=get rhythm
TTITLE12=sunday morning coming down
EXTD=
EXTT0=
EXTT1=
EXTT2=
EXTT3=
EXTT4=
EXTT5=
EXTT6=
EXTT7=
EXTT8=
EXTT9=
EXTT10=
EXTT11=
EXTT12=
PLAYORDER=
